<?xml version="1.0" encoding="UTF-8" standalone="no"?>
<svg
   width="225.778mm"
   height="169.333mm"
   viewBox="0 0 640 480"
   version="1.2"
   id="svg20"
   sodipodi:docname="3-1.svg"
   inkscape:version="1.3.2 (091e20ef0f, 2023-11-25)"
   xmlns:inkscape="http://www.inkscape.org/namespaces/inkscape"
   xmlns:sodipodi="http://sodipodi.sourceforge.net/DTD/sodipodi-0.dtd"
   xmlns="http://www.w3.org/2000/svg"
   xmlns:svg="http://www.w3.org/2000/svg">
  <sodipodi:namedview
     id="namedview20"
     pagecolor="#ffffff"
     bordercolor="#000000"
     borderopacity="0.25"
     inkscape:showpageshadow="2"
     inkscape:pageopacity="0.0"
     inkscape:pagecheckerboard="0"
     inkscape:deskcolor="#d1d1d1"
     inkscape:document-units="mm"
     inkscape:zoom="0.88499011"
     inkscape:cx="545.20383"
     inkscape:cy="405.65425"
     inkscape:window-width="959"
     inkscape:window-height="1008"
     inkscape:window-x="0"
     inkscape:window-y="0"
     inkscape:window-maximized="0"
     inkscape:current-layer="svg20" />
  <title
     id="title1">Qt SVG Document</title>
  <desc
     id="desc1">Generated with Qt</desc>
  <defs
     id="defs1" />
  <g
     fill="none"
     stroke="black"
     stroke-width="1"
     fill-rule="evenodd"
     stroke-linecap="square"
     stroke-linejoin="bevel"
     id="g20">
    <g
       fill="none"
       stroke="#000000"
       stroke-opacity="1"
       stroke-width="1"
       stroke-linecap="square"
       stroke-linejoin="bevel"
       transform="matrix(1,0,0,1,0,0)"
       font-family="Iosevka NF"
       font-size="10"
       font-weight="400"
       font-style="normal"
       id="g1" />
    <g
       fill="none"
       stroke="#000000"
       stroke-opacity="1"
       stroke-width="1"
       stroke-linecap="square"
       stroke-linejoin="bevel"
       transform="matrix(1,0,0,1,0,0)"
       font-family="Iosevka NF"
       font-size="10"
       font-weight="400"
       font-style="normal"
       id="g2" />
    <g
       fill="none"
       stroke="#009e73"
       stroke-opacity="1"
       stroke-width="1"
       stroke-linecap="round"
       stroke-linejoin="round"
       transform="matrix(1,0,0,1,0,0)"
       font-family="Iosevka NF"
       font-size="10"
       font-weight="400"
       font-style="normal"
       id="g7">
      <polyline
         fill="none"
         vector-effect="none"
         points="318.5,465.5 318.5,19.5 "
         id="polyline2" />
      <polyline
         fill="none"
         vector-effect="none"
         points="313.8,24.4 318.3,19.9 "
         id="polyline3" />
      <polyline
         fill="none"
         vector-effect="none"
         points="322.8,24.4 318.3,19.9 "
         id="polyline4" />
      <polyline
         fill="none"
         vector-effect="none"
         points="95.5,242.5 541.5,242.5 "
         id="polyline5" />
      <polyline
         fill="none"
         vector-effect="none"
         points="536.8,247.3 541.3,242.8 "
         id="polyline6" />
      <polyline
         fill="none"
         vector-effect="none"
         points="536.8,238.4 541.3,242.8 "
         id="polyline7" />
    </g>
    <g
       fill="none"
       stroke="#000000"
       stroke-opacity="1"
       stroke-width="1"
       stroke-linecap="square"
       stroke-linejoin="bevel"
       transform="matrix(1,0,0,1,0,0)"
       font-family="Iosevka NF"
       font-size="10"
       font-weight="400"
       font-style="normal"
       id="g8" />
    <g
       fill="none"
       stroke="#000000"
       stroke-opacity="1"
       stroke-width="1"
       stroke-linecap="square"
       stroke-linejoin="bevel"
       transform="matrix(1,0,0,1,0,0)"
       font-family="Iosevka NF"
       font-size="10"
       font-weight="400"
       font-style="normal"
       id="g9" />
    <g
       fill="none"
       stroke="#000000"
       stroke-opacity="1"
       stroke-width="1"
       stroke-linecap="square"
       stroke-linejoin="bevel"
       transform="matrix(1,0,0,1,0,0)"
       font-family="Iosevka NF"
       font-size="10"
       font-weight="400"
       font-style="normal"
       id="g10" />
    <g
       fill="none"
       stroke="#000000"
       stroke-opacity="1"
       stroke-width="1"
       stroke-linecap="square"
       stroke-linejoin="bevel"
       transform="matrix(1,0,0,1,0,0)"
       font-family="Iosevka NF"
       font-size="10"
       font-weight="400"
       font-style="normal"
       id="g11" />
    <g
       fill="none"
       stroke="#9400d3"
       stroke-opacity="1"
       stroke-width="1"
       stroke-linecap="round"
       stroke-linejoin="round"
       transform="matrix(1,0,0,1,0,0)"
       font-family="Iosevka NF"
       font-size="10"
       font-weight="400"
       font-style="normal"
       id="g12">
      <polyline
         fill="none"
         vector-effect="none"
         points="95.2,465.9 95.2,465.9 96.1,465 97,464.1 97.9,463.2 98.8,462.3 99.7,461.4 100.6,460.5 101.5,459.6 102.4,458.8 103.2,457.9 104.1,457 105,456.1 105.9,455.2 106.8,454.3 107.7,453.4 108.6,452.5 109.5,451.6 110.4,450.7 111.3,449.8 112.2,448.9 113.1,448 114,447.1 114.9,446.2 115.8,445.3 116.7,444.5 117.5,443.6 118.4,442.7 119.3,441.8 120.2,440.9 121.1,440 122,439.1 122.9,438.2 123.8,437.3 124.7,436.4 125.6,435.5 126.5,434.6 127.4,433.7 128.3,432.8 129.2,431.9 130.1,431.1 131,430.2 131.8,429.3 132.7,428.4 133.6,427.5 134.5,426.6 135.4,425.7 136.3,424.8 137.2,423.9 138.1,423 139,422.1 139.9,421.2 140.8,420.3 141.7,419.4 142.6,418.5 143.5,417.6 144.4,416.8 145.3,415.9 146.1,415 147,414.1 147.9,413.2 148.8,412.3 149.7,411.4 150.6,410.5 151.5,409.6 152.4,408.7 153.3,407.8 154.2,406.9 155.1,406 156,405.1 156.9,404.2 157.8,403.3 158.7,402.5 159.6,401.6 160.4,400.7 161.3,399.8 162.2,398.9 163.1,398 164,397.1 164.9,396.2 165.8,395.3 166.7,394.4 167.6,393.5 168.5,392.6 169.4,391.7 170.3,390.8 171.2,389.9 172.1,389.1 173,388.2 173.9,387.3 174.7,386.4 175.6,385.5 176.5,384.6 177.4,383.7 178.3,382.8 179.2,381.9 180.1,381 181,380.1 181.9,379.2 182.8,378.3 183.7,377.4 184.6,376.5 185.5,375.6 186.4,374.8 187.3,373.9 188.2,373 189,372.1 189.9,371.2 190.8,370.3 191.7,369.4 192.6,368.5 193.5,367.6 194.4,366.7 195.3,365.8 196.2,364.9 197.1,364 198,363.1 198.9,362.2 199.8,361.4 200.7,360.5 201.6,359.6 202.5,358.7 203.3,357.8 204.2,356.9 205.1,356 206,355.1 206.9,354.2 207.8,353.3 208.7,352.4 209.6,351.5 210.5,350.6 211.4,349.7 212.3,348.8 213.2,347.9 214.1,347.1 215,346.2 215.9,345.3 216.8,344.4 217.6,343.5 218.5,342.6 219.4,341.7 220.3,340.8 221.2,339.9 222.1,339 223,338.1 223.9,337.2 224.8,336.3 225.7,335.4 226.6,334.5 227.5,333.6 228.4,332.8 229.3,331.9 230.2,331 231.1,330.1 231.9,329.2 232.8,328.3 233.7,327.4 234.6,326.5 235.5,325.6 236.4,324.7 237.3,323.8 238.2,322.9 239.1,322 240,321.1 240.9,320.2 241.8,319.4 242.7,318.5 243.6,317.6 244.5,316.7 245.4,315.8 246.3,314.9 247.1,314 248,313.1 248.9,312.2 249.8,311.3 250.7,310.4 251.6,309.5 252.5,308.6 253.4,307.7 254.3,306.8 255.2,305.9 256.1,305.1 257,304.2 257.9,303.3 258.8,302.4 259.7,301.5 260.6,300.6 261.4,299.7 262.3,298.8 263.2,297.9 264.1,297 265,296.1 265.9,295.2 266.8,294.3 267.7,293.4 268.6,292.5 269.5,291.7 270.4,290.8 271.3,289.9 272.2,289 273.1,288.1 274,287.2 274.9,286.3 275.7,285.4 276.6,284.5 277.5,283.6 278.4,282.7 279.3,281.8 280.2,280.9 281.1,280 282,279.1 282.9,278.2 283.8,277.4 284.7,276.5 285.6,275.6 286.5,274.7 287.4,273.8 288.3,272.9 289.2,272 290,271.1 290.9,270.2 291.8,269.3 292.7,268.4 293.6,267.5 294.5,266.6 295.4,265.7 296.3,264.8 297.2,263.9 298.1,263.1 299,262.2 299.9,261.3 300.8,260.4 301.7,259.5 302.6,258.6 303.5,257.7 304.3,256.8 305.2,255.9 306.1,255 307,254.1 307.9,253.2 308.8,252.3 309.7,251.4 310.6,250.5 311.5,249.7 312.4,248.8 313.3,247.9 314.2,247 315.1,246.1 316,245.2 316.9,244.3 317.8,243.4 318.6,242.5 319.5,241.6 320.4,240.7 321.3,239.8 322.2,238.9 323.1,238 324,237.1 324.9,236.2 325.8,235.4 326.7,234.5 327.6,233.6 328.5,232.7 329.4,231.8 330.3,230.9 331.2,230 332.1,229.1 332.9,228.2 333.8,227.3 334.7,226.4 335.6,225.5 336.5,224.6 337.4,223.7 338.3,222.8 339.2,222 340.1,221.1 341,220.2 341.9,219.3 342.8,218.4 343.7,217.5 344.6,216.6 345.5,215.7 346.4,214.8 347.2,213.9 348.1,213 349,212.1 349.9,211.2 350.8,210.3 351.7,209.4 352.6,208.5 353.5,207.7 354.4,206.8 355.3,205.9 356.2,205 357.1,204.1 358,203.2 358.9,202.3 359.8,201.4 360.7,200.5 361.5,199.6 362.4,198.7 363.3,197.8 364.2,196.9 365.1,196 366,195.1 366.9,194.2 367.8,193.4 368.7,192.5 369.6,191.6 370.5,190.7 371.4,189.8 372.3,188.9 373.2,188 374.1,187.1 375,186.2 375.8,185.3 376.7,184.4 377.6,183.5 378.5,182.6 379.4,181.7 380.3,180.8 381.2,180 382.1,179.1 383,178.2 383.9,177.3 384.8,176.4 385.7,175.5 386.6,174.6 387.5,173.7 388.4,172.8 389.3,171.9 390.1,171 391,170.1 391.9,169.2 392.8,168.3 393.7,167.4 394.6,166.5 395.5,165.7 396.4,164.8 397.3,163.9 398.2,163 399.1,162.1 400,161.2 400.9,160.3 401.8,159.4 402.7,158.5 403.6,157.6 404.5,156.7 405.3,155.8 406.2,154.9 407.1,154 408,153.1 408.9,152.3 409.8,151.4 410.7,150.5 411.6,149.6 412.5,148.7 413.4,147.8 414.3,146.9 415.2,146 416.1,145.1 417,144.2 417.9,143.3 418.8,142.4 419.6,141.5 420.5,140.6 421.4,139.7 422.3,138.8 423.2,138 424.1,137.1 425,136.2 425.9,135.3 426.8,134.4 427.7,133.5 428.6,132.6 429.5,131.7 430.4,130.8 431.3,129.9 432.2,129 433.1,128.1 433.9,127.2 434.8,126.3 435.7,125.4 436.6,124.5 437.5,123.7 438.4,122.8 439.3,121.9 440.2,121 441.1,120.1 442,119.2 442.9,118.3 443.8,117.4 444.7,116.5 445.6,115.6 446.5,114.7 447.4,113.8 448.2,112.9 449.1,112 450,111.1 450.9,110.3 451.8,109.4 452.7,108.5 453.6,107.6 454.5,106.7 455.4,105.8 456.3,104.9 457.2,104 458.1,103.1 459,102.2 459.9,101.3 460.8,100.4 461.7,99.5 462.5,98.6 463.4,97.7 464.3,96.8 465.2,96 466.1,95.1 467,94.2 467.9,93.3 468.8,92.4 469.7,91.5 470.6,90.6 471.5,89.7 472.4,88.8 473.3,87.9 474.2,87 475.1,86.1 476,85.2 476.8,84.3 477.7,83.4 478.6,82.6 479.5,81.7 480.4,80.8 481.3,79.9 482.2,79 483.1,78.1 484,77.2 484.9,76.3 485.8,75.4 486.7,74.5 487.6,73.6 488.5,72.7 489.4,71.8 490.3,70.9 491.1,70 492,69.1 492.9,68.3 493.8,67.4 494.7,66.5 495.6,65.6 496.5,64.7 497.4,63.8 498.3,62.9 499.2,62 500.1,61.1 501,60.2 501.9,59.3 502.8,58.4 503.7,57.5 504.6,56.6 505.4,55.7 506.3,54.8 507.2,54 508.1,53.1 509,52.2 509.9,51.3 510.8,50.4 511.7,49.5 512.6,48.6 513.5,47.7 514.4,46.8 515.3,45.9 516.2,45 517.1,44.1 518,43.2 518.9,42.3 519.7,41.4 520.6,40.6 521.5,39.7 522.4,38.8 523.3,37.9 524.2,37 525.1,36.1 526,35.2 526.9,34.3 527.8,33.4 528.7,32.5 529.6,31.6 530.5,30.7 531.4,29.8 532.3,28.9 533.2,28 534,27.1 534.9,26.3 535.8,25.4 536.7,24.5 537.6,23.6 538.5,22.7 539.4,21.8 540.3,20.9 541.2,20 "
         id="polyline11" />
    </g>
    <g
       fill="none"
       stroke="#000000"
       stroke-opacity="1"
       stroke-width="1"
       stroke-linecap="square"
       stroke-linejoin="bevel"
       transform="matrix(1,0,0,1,0,0)"
       font-family="Iosevka NF"
       font-size="10"
       font-weight="400"
       font-style="normal"
       id="g13" />
    <g
       fill="none"
       stroke="#000000"
       stroke-opacity="1"
       stroke-width="1"
       stroke-linecap="square"
       stroke-linejoin="bevel"
       transform="matrix(1,0,0,1,0,0)"
       font-family="Iosevka NF"
       font-size="10"
       font-weight="400"
       font-style="normal"
       id="g14" />
    <g
       fill="none"
       stroke="#000000"
       stroke-opacity="1"
       stroke-width="1"
       stroke-linecap="square"
       stroke-linejoin="bevel"
       transform="matrix(1,0,0,1,0,0)"
       font-family="Iosevka NF"
       font-size="10"
       font-weight="400"
       font-style="normal"
       id="g15" />
    <g
       fill="none"
       stroke="#000000"
       stroke-opacity="1"
       stroke-width="1"
       stroke-linecap="square"
       stroke-linejoin="bevel"
       transform="matrix(1,0,0,1,0,0)"
       font-family="Iosevka NF"
       font-size="10"
       font-weight="400"
       font-style="normal"
       id="g16" />
    <g
       fill="none"
       stroke="#009e73"
       stroke-opacity="1"
       stroke-width="1"
       stroke-linecap="round"
       stroke-linejoin="round"
       transform="matrix(1,0,0,1,0,0)"
       font-family="Iosevka NF"
       font-size="10"
       font-weight="400"
       font-style="normal"
       id="g17">
      <polyline
         fill="none"
         vector-effect="none"
         points="95.2,20 95.2,20 96.1,20.9 97,21.8 97.9,22.7 98.8,23.6 99.7,24.5 100.6,25.4 101.5,26.3 102.4,27.1 103.2,28 104.1,28.9 105,29.8 105.9,30.7 106.8,31.6 107.7,32.5 108.6,33.4 109.5,34.3 110.4,35.2 111.3,36.1 112.2,37 113.1,37.9 114,38.8 114.9,39.7 115.8,40.6 116.7,41.4 117.5,42.3 118.4,43.2 119.3,44.1 120.2,45 121.1,45.9 122,46.8 122.9,47.7 123.8,48.6 124.7,49.5 125.6,50.4 126.5,51.3 127.4,52.2 128.3,53.1 129.2,54 130.1,54.8 131,55.7 131.8,56.6 132.7,57.5 133.6,58.4 134.5,59.3 135.4,60.2 136.3,61.1 137.2,62 138.1,62.9 139,63.8 139.9,64.7 140.8,65.6 141.7,66.5 142.6,67.4 143.5,68.3 144.4,69.1 145.3,70 146.1,70.9 147,71.8 147.9,72.7 148.8,73.6 149.7,74.5 150.6,75.4 151.5,76.3 152.4,77.2 153.3,78.1 154.2,79 155.1,79.9 156,80.8 156.9,81.7 157.8,82.6 158.7,83.4 159.6,84.3 160.4,85.2 161.3,86.1 162.2,87 163.1,87.9 164,88.8 164.9,89.7 165.8,90.6 166.7,91.5 167.6,92.4 168.5,93.3 169.4,94.2 170.3,95.1 171.2,96 172.1,96.8 173,97.7 173.9,98.6 174.7,99.5 175.6,100.4 176.5,101.3 177.4,102.2 178.3,103.1 179.2,104 180.1,104.9 181,105.8 181.9,106.7 182.8,107.6 183.7,108.5 184.6,109.4 185.5,110.3 186.4,111.1 187.3,112 188.2,112.9 189,113.8 189.9,114.7 190.8,115.6 191.7,116.5 192.6,117.4 193.5,118.3 194.4,119.2 195.3,120.1 196.2,121 197.1,121.9 198,122.8 198.9,123.7 199.8,124.5 200.7,125.4 201.6,126.3 202.5,127.2 203.3,128.1 204.2,129 205.1,129.9 206,130.8 206.9,131.7 207.8,132.6 208.7,133.5 209.6,134.4 210.5,135.3 211.4,136.2 212.3,137.1 213.2,138 214.1,138.8 215,139.7 215.9,140.6 216.8,141.5 217.6,142.4 218.5,143.3 219.4,144.2 220.3,145.1 221.2,146 222.1,146.9 223,147.8 223.9,148.7 224.8,149.6 225.7,150.5 226.6,151.4 227.5,152.3 228.4,153.1 229.3,154 230.2,154.9 231.1,155.8 231.9,156.7 232.8,157.6 233.7,158.5 234.6,159.4 235.5,160.3 236.4,161.2 237.3,162.1 238.2,163 239.1,163.9 240,164.8 240.9,165.7 241.8,166.5 242.7,167.4 243.6,168.3 244.5,169.2 245.4,170.1 246.3,171 247.1,171.9 248,172.8 248.9,173.7 249.8,174.6 250.7,175.5 251.6,176.4 252.5,177.3 253.4,178.2 254.3,179.1 255.2,180 256.1,180.8 257,181.7 257.9,182.6 258.8,183.5 259.7,184.4 260.6,185.3 261.4,186.2 262.3,187.1 263.2,188 264.1,188.9 265,189.8 265.9,190.7 266.8,191.6 267.7,192.5 268.6,193.4 269.5,194.2 270.4,195.1 271.3,196 272.2,196.9 273.1,197.8 274,198.7 274.9,199.6 275.7,200.5 276.6,201.4 277.5,202.3 278.4,203.2 279.3,204.1 280.2,205 281.1,205.9 282,206.8 282.9,207.7 283.8,208.5 284.7,209.4 285.6,210.3 286.5,211.2 287.4,212.1 288.3,213 289.2,213.9 290,214.8 290.9,215.7 291.8,216.6 292.7,217.5 293.6,218.4 294.5,219.3 295.4,220.2 296.3,221.1 297.2,222 298.1,222.8 299,223.7 299.9,224.6 300.8,225.5 301.7,226.4 302.6,227.3 303.5,228.2 304.3,229.1 305.2,230 306.1,230.9 307,231.8 307.9,232.7 308.8,233.6 309.7,234.5 310.6,235.4 311.5,236.2 312.4,237.1 313.3,238 314.2,238.9 315.1,239.8 316,240.7 316.9,241.6 317.8,242.5 318.6,243.4 319.5,244.3 320.4,245.2 321.3,246.1 322.2,247 323.1,247.9 324,248.8 324.9,249.7 325.8,250.5 326.7,251.4 327.6,252.3 328.5,253.2 329.4,254.1 330.3,255 331.2,255.9 332.1,256.8 332.9,257.7 333.8,258.6 334.7,259.5 335.6,260.4 336.5,261.3 337.4,262.2 338.3,263.1 339.2,263.9 340.1,264.8 341,265.7 341.9,266.6 342.8,267.5 343.7,268.4 344.6,269.3 345.5,270.2 346.4,271.1 347.2,272 348.1,272.9 349,273.8 349.9,274.7 350.8,275.6 351.7,276.5 352.6,277.4 353.5,278.2 354.4,279.1 355.3,280 356.2,280.9 357.1,281.8 358,282.7 358.9,283.6 359.8,284.5 360.7,285.4 361.5,286.3 362.4,287.2 363.3,288.1 364.2,289 365.1,289.9 366,290.8 366.9,291.7 367.8,292.5 368.7,293.4 369.6,294.3 370.5,295.2 371.4,296.1 372.3,297 373.2,297.9 374.1,298.8 375,299.7 375.8,300.6 376.7,301.5 377.6,302.4 378.5,303.3 379.4,304.2 380.3,305.1 381.2,305.9 382.1,306.8 383,307.7 383.9,308.6 384.8,309.5 385.7,310.4 386.6,311.3 387.5,312.2 388.4,313.1 389.3,314 390.1,314.9 391,315.8 391.9,316.7 392.8,317.6 393.7,318.5 394.6,319.4 395.5,320.2 396.4,321.1 397.3,322 398.2,322.9 399.1,323.8 400,324.7 400.9,325.6 401.8,326.5 402.7,327.4 403.6,328.3 404.5,329.2 405.3,330.1 406.2,331 407.1,331.9 408,332.8 408.9,333.6 409.8,334.5 410.7,335.4 411.6,336.3 412.5,337.2 413.4,338.1 414.3,339 415.2,339.9 416.1,340.8 417,341.7 417.9,342.6 418.8,343.5 419.6,344.4 420.5,345.3 421.4,346.2 422.3,347.1 423.2,347.9 424.1,348.8 425,349.7 425.9,350.6 426.8,351.5 427.7,352.4 428.6,353.3 429.5,354.2 430.4,355.1 431.3,356 432.2,356.9 433.1,357.8 433.9,358.7 434.8,359.6 435.7,360.5 436.6,361.4 437.5,362.2 438.4,363.1 439.3,364 440.2,364.9 441.1,365.8 442,366.7 442.9,367.6 443.8,368.5 444.7,369.4 445.6,370.3 446.5,371.2 447.4,372.1 448.2,373 449.1,373.9 450,374.8 450.9,375.6 451.8,376.5 452.7,377.4 453.6,378.3 454.5,379.2 455.4,380.1 456.3,381 457.2,381.9 458.1,382.8 459,383.7 459.9,384.6 460.8,385.5 461.7,386.4 462.5,387.3 463.4,388.2 464.3,389.1 465.2,389.9 466.1,390.8 467,391.7 467.9,392.6 468.8,393.5 469.7,394.4 470.6,395.3 471.5,396.2 472.4,397.1 473.3,398 474.2,398.9 475.1,399.8 476,400.7 476.8,401.6 477.7,402.5 478.6,403.3 479.5,404.2 480.4,405.1 481.3,406 482.2,406.9 483.1,407.8 484,408.7 484.9,409.6 485.8,410.5 486.7,411.4 487.6,412.3 488.5,413.2 489.4,414.1 490.3,415 491.1,415.9 492,416.8 492.9,417.6 493.8,418.5 494.7,419.4 495.6,420.3 496.5,421.2 497.4,422.1 498.3,423 499.2,423.9 500.1,424.8 501,425.7 501.9,426.6 502.8,427.5 503.7,428.4 504.6,429.3 505.4,430.2 506.3,431.1 507.2,431.9 508.1,432.8 509,433.7 509.9,434.6 510.8,435.5 511.7,436.4 512.6,437.3 513.5,438.2 514.4,439.1 515.3,440 516.2,440.9 517.1,441.8 518,442.7 518.9,443.6 519.7,444.5 520.6,445.3 521.5,446.2 522.4,447.1 523.3,448 524.2,448.9 525.1,449.8 526,450.7 526.9,451.6 527.8,452.5 528.7,453.4 529.6,454.3 530.5,455.2 531.4,456.1 532.3,457 533.2,457.9 534,458.8 534.9,459.6 535.8,460.5 536.7,461.4 537.6,462.3 538.5,463.2 539.4,464.1 540.3,465 541.2,465.9 "
         id="polyline16" />
    </g>
    <g
       fill="none"
       stroke="#000000"
       stroke-opacity="1"
       stroke-width="1"
       stroke-linecap="square"
       stroke-linejoin="bevel"
       transform="matrix(1,0,0,1,0,0)"
       font-family="Iosevka NF"
       font-size="10"
       font-weight="400"
       font-style="normal"
       id="g18" />
    <g
       fill="none"
       stroke="#000000"
       stroke-opacity="1"
       stroke-width="1"
       stroke-linecap="square"
       stroke-linejoin="bevel"
       transform="matrix(1,0,0,1,0,0)"
       font-family="Iosevka NF"
       font-size="10"
       font-weight="400"
       font-style="normal"
       id="g19" />
  </g>
  <path
     style="fill:#9400d3;fill-opacity:0.882353;stroke-width:0.5593"
     d=""
     id="path20"
     transform="matrix(0.7500015,0,0,0.7500015,-9.5367623e-4,0)" />
  <path
     style="fill:#9400d3;fill-opacity:0.882353;stroke-width:0.5593"
     d=""
     id="path21"
     transform="matrix(0.7500015,0,0,0.7500015,-9.5367623e-4,0)" />
  <path
     style="fill:#9400d3;fill-opacity:0.882353;stroke-width:0.5593"
     d=""
     id="path22"
     transform="matrix(0.7500015,0,0,0.7500015,-9.5367623e-4,0)" />
  <text
     xml:space="preserve"
     style="font-size:20.0001px;font-family:'Iosevka NF';-inkscape-font-specification:'Iosevka NF';fill:#009e73;fill-opacity:1;stroke-width:0.525001"
     x="499.33426"
     y="318.76404"
     id="text23"><tspan
       sodipodi:role="line"
       id="tspan23"
       style="stroke-width:0.525001"
       x="499.33426"
       y="318.76404">x+y&gt;0</tspan></text>
  <text
     xml:space="preserve"
     style="font-size:20.0001px;font-family:'Iosevka NF';-inkscape-font-specification:'Iosevka NF';fill:#009e73;fill-opacity:1;stroke-width:0.525001"
     x="416.33798"
     y="373.4129"
     id="text24"><tspan
       sodipodi:role="line"
       id="tspan24"
       style="stroke-width:0.525001"
       x="416.33798"
       y="373.4129">x+y=0</tspan></text>
  <text
     xml:space="preserve"
     style="font-size:20.0001px;font-family:'Iosevka NF';-inkscape-font-specification:'Iosevka NF';fill:#009e73;fill-opacity:1;stroke-width:0.525001"
     x="347.54587"
     y="408.853"
     id="text25"><tspan
       sodipodi:role="line"
       id="tspan25"
       style="stroke-width:0.525001;fill:#009e73;fill-opacity:1"
       x="347.54587"
       y="408.853">x+y&lt;0</tspan></text>
  <text
     xml:space="preserve"
     style="font-size:20.0001px;font-family:'Iosevka NF';-inkscape-font-specification:'Iosevka NF';fill:#a932dc;fill-opacity:1;stroke-width:0.525001"
     x="363.11234"
     y="82.841759"
     id="text26"><tspan
       sodipodi:role="line"
       id="tspan26"
       style="stroke-width:0.525001"
       x="363.11234"
       y="82.841759">x&lt;y</tspan></text>
  <text
     xml:space="preserve"
     style="font-size:20.0001px;font-family:'Iosevka NF';-inkscape-font-specification:'Iosevka NF';fill:#a932dc;fill-opacity:1;stroke-width:0.525001"
     x="438.83328"
     y="108.24906"
     id="text27"><tspan
       sodipodi:role="line"
       id="tspan27"
       style="stroke-width:0.525001"
       x="438.83328"
       y="108.24906">x=y</tspan></text>
  <text
     xml:space="preserve"
     style="font-size:20.0001px;font-family:'Iosevka NF';-inkscape-font-specification:'Iosevka NF';fill:#a932dc;fill-opacity:1;stroke-width:0.525001"
     x="485.60767"
     y="198.235"
     id="text28"><tspan
       sodipodi:role="line"
       id="tspan28"
       style="stroke-width:0.525001"
       x="485.60767"
       y="198.235">x&gt;y</tspan></text>
</svg>
